<svg xmlns="http://www.w3.org/2000/svg" xmlns:xlink="http://www.w3.org/1999/xlink" width="500" zoomAndPan="magnify" viewBox="0 0 375 374.999991" height="500" preserveAspectRatio="xMidYMid meet" version="1.0"><defs><g/></defs><g fill="#151f28" fill-opacity="1"><g transform="translate(93.19296, 244.043018)"><g><path d="M 39.484375 -20.796875 C 39.484375 -19.460938 39.441406 -17.738281 39.359375 -15.625 C 39.203125 -13.507812 38.851562 -11.4375 38.3125 -9.40625 C 37.675781 -7.363281 36.734375 -5.597656 35.484375 -4.109375 C 34.148438 -2.617188 32.269531 -1.875 29.84375 -1.875 L 22.203125 -1.875 L 22.203125 -43.46875 L 29.84375 -43.46875 C 32.269531 -43.46875 34.148438 -42.921875 35.484375 -41.828125 C 36.734375 -40.734375 37.675781 -39.398438 38.3125 -37.828125 C 38.851562 -36.265625 39.203125 -34.625 39.359375 -32.90625 C 39.441406 -31.175781 39.484375 -29.644531 39.484375 -28.3125 Z M 28.546875 -81.3125 C 30.972656 -81.3125 32.851562 -80.566406 34.1875 -79.078125 C 35.445312 -77.585938 36.390625 -75.828125 37.015625 -73.796875 C 37.554688 -71.753906 37.90625 -69.675781 38.0625 -67.5625 C 38.144531 -65.445312 38.1875 -63.722656 38.1875 -62.390625 L 38.1875 -57.921875 C 38.1875 -56.597656 38.144531 -55.191406 38.0625 -53.703125 C 37.90625 -52.128906 37.554688 -50.675781 37.015625 -49.34375 C 36.390625 -48.019531 35.445312 -46.925781 34.1875 -46.0625 C 32.851562 -45.125 30.972656 -44.65625 28.546875 -44.65625 L 22.09375 -44.65625 L 22.09375 -81.3125 Z M 40.1875 -43.59375 C 42.769531 -44.84375 44.84375 -46.644531 46.40625 -49 C 47.976562 -51.269531 48.765625 -54.128906 48.765625 -57.578125 L 48.765625 -62.046875 C 48.765625 -65.566406 48.253906 -68.617188 47.234375 -71.203125 C 46.140625 -73.710938 44.691406 -75.789062 42.890625 -77.4375 C 41.003906 -79.082031 38.847656 -80.296875 36.421875 -81.078125 C 33.992188 -81.859375 31.367188 -82.25 28.546875 -82.25 L 5.75 -82.25 L 5.75 -81.078125 L 11.625 -81.078125 L 11.625 -1.40625 L 5.75 -1.40625 L 5.75 -0.234375 L 29.84375 -0.234375 C 32.664062 -0.234375 35.289062 -0.625 37.71875 -1.40625 C 40.144531 -2.113281 42.300781 -3.289062 44.1875 -4.9375 C 45.976562 -6.5 47.425781 -8.570312 48.53125 -11.15625 C 49.550781 -13.75 50.0625 -16.84375 50.0625 -20.4375 L 50.0625 -27.84375 C 50.0625 -31.601562 49.160156 -34.816406 47.359375 -37.484375 C 45.554688 -40.066406 43.164062 -42.101562 40.1875 -43.59375 Z M 40.1875 -43.59375 "/></g></g></g><g fill="#151f28" fill-opacity="1"><g transform="translate(149.125178, 244.043018)"><g><path d="M 52.40625 -82.25 L 52.40625 -81.078125 L 58.515625 -81.078125 L 40.65625 -36.3125 L 22.796875 -81.078125 L 28.078125 -81.078125 L 28.078125 -82.25 L 5.875 -82.25 L 5.875 -81.078125 L 11.515625 -81.078125 L 30.4375 -33.71875 L 30.4375 -1.171875 L 24.5625 -1.171875 L 24.5625 0 L 46.765625 0 L 46.765625 -1.171875 L 40.890625 -1.171875 L 40.890625 -33.71875 L 59.8125 -81.078125 L 65.328125 -81.078125 L 65.328125 -82.25 Z M 52.40625 -82.25 "/></g></g></g><g fill="#151f28" fill-opacity="1"><g transform="translate(220.332992, 244.043018)"><g><path d="M 49.9375 -1.0625 L 27.03125 -48.296875 L 46.171875 -80.953125 L 51.9375 -80.953125 L 51.9375 -82.125 L 39.015625 -82.125 L 39.015625 -80.953125 L 44.765625 -80.953125 L 22.203125 -42.296875 L 22.203125 -80.953125 L 28.078125 -80.953125 L 28.078125 -82.125 L 5.875 -82.125 L 5.875 -80.953125 L 11.75 -80.953125 L 11.75 -1.0625 L 5.875 -1.0625 L 5.875 0.125 L 28.078125 0.125 L 28.078125 -1.0625 L 22.203125 -1.0625 L 22.203125 -33.015625 L 38.0625 -1.0625 L 33.375 -1.0625 L 33.375 0.125 L 55.578125 0.125 L 55.578125 -1.0625 Z M 49.9375 -1.0625 "/></g></g></g><g fill="#151f28" fill-opacity="1"><g transform="translate(77.736414, 261.833918)"><g><path d="M 3.53125 -1.8125 C 3.53125 -2.007812 3.457031 -2.179688 3.3125 -2.328125 C 3.164062 -2.484375 2.988281 -2.5625 2.78125 -2.5625 L 1.90625 -2.5625 L 1.90625 -1.0625 L 2.78125 -1.0625 C 2.988281 -1.0625 3.164062 -1.132812 3.3125 -1.28125 C 3.457031 -1.425781 3.53125 -1.601562 3.53125 -1.8125 Z M 3.109375 -4.40625 C 3.109375 -4.601562 3.035156 -4.769531 2.890625 -4.90625 C 2.742188 -5.050781 2.578125 -5.125 2.390625 -5.125 L 1.90625 -5.125 L 1.90625 -3.6875 L 2.390625 -3.6875 C 2.578125 -3.6875 2.742188 -3.753906 2.890625 -3.890625 C 3.035156 -4.035156 3.109375 -4.207031 3.109375 -4.40625 Z M 4.921875 -1.78125 C 4.921875 -1.238281 4.753906 -0.804688 4.421875 -0.484375 C 4.097656 -0.160156 3.640625 0 3.046875 0 L 0.546875 0 L 0.546875 -6.1875 L 2.671875 -6.1875 C 3.023438 -6.1875 3.332031 -6.117188 3.59375 -5.984375 C 3.851562 -5.847656 4.050781 -5.660156 4.1875 -5.421875 C 4.332031 -5.191406 4.40625 -4.929688 4.40625 -4.640625 C 4.40625 -4.328125 4.335938 -4.054688 4.203125 -3.828125 C 4.078125 -3.597656 3.898438 -3.429688 3.671875 -3.328125 C 4.015625 -3.253906 4.304688 -3.082031 4.546875 -2.8125 C 4.796875 -2.539062 4.921875 -2.195312 4.921875 -1.78125 Z M 4.921875 -1.78125 "/></g></g></g><g fill="#151f28" fill-opacity="1"><g transform="translate(89.74023, 261.833918)"><g><path d="M 4.140625 -1.234375 L 4.140625 0 L 0.546875 0 L 0.546875 -6.1875 L 4.140625 -6.1875 L 4.140625 -4.953125 L 1.90625 -4.953125 L 1.90625 -3.71875 L 4.046875 -3.71875 L 4.046875 -2.484375 L 1.90625 -2.484375 L 1.90625 -1.234375 Z M 4.140625 -1.234375 "/></g></g></g><g fill="#151f28" fill-opacity="1"><g transform="translate(101.407578, 261.833918)"><g><path d="M 1.90625 0 L 0.546875 0 L 0.546875 -6.1875 L 1.90625 -6.1875 Z M 1.90625 0 "/></g></g></g><g fill="#151f28" fill-opacity="1"><g transform="translate(110.856054, 261.833918)"><g><path d="M 3.171875 -4.953125 L 3.171875 0 L 1.8125 0 L 1.8125 -4.953125 L 0.046875 -4.953125 L 0.046875 -6.1875 L 4.953125 -6.1875 L 4.953125 -4.953125 Z M 3.171875 -4.953125 "/></g></g></g><g fill="#151f28" fill-opacity="1"><g transform="translate(122.832599, 261.833918)"><g/></g></g><g fill="#151f28" fill-opacity="1"><g transform="translate(132.099194, 261.833918)"><g><path d="M 2.359375 0 L 2.359375 -2.953125 L 0.078125 -6.1875 L 1.703125 -6.1875 L 3.046875 -4.046875 L 4.375 -6.1875 L 6.015625 -6.1875 L 3.71875 -2.953125 L 3.71875 0 Z M 2.359375 0 "/></g></g></g><g fill="#151f28" fill-opacity="1"><g transform="translate(145.16699, 261.833918)"><g><path d="M 3.921875 -2.375 L 3.140625 -4.578125 L 2.34375 -2.375 Z M 6.234375 0 L 4.765625 0 L 4.3125 -1.25 L 1.953125 -1.25 L 1.515625 0 L 0.046875 0 L 2.5625 -6.1875 L 3.71875 -6.1875 Z M 6.234375 0 "/></g></g></g><g fill="#151f28" fill-opacity="1"><g transform="translate(158.425753, 261.833918)"><g><path d="M 3.921875 -2.375 L 3.140625 -4.578125 L 2.34375 -2.375 Z M 6.234375 0 L 4.765625 0 L 4.3125 -1.25 L 1.953125 -1.25 L 1.515625 0 L 0.046875 0 L 2.5625 -6.1875 L 3.71875 -6.1875 Z M 6.234375 0 "/></g></g></g><g fill="#151f28" fill-opacity="1"><g transform="translate(171.684516, 261.833918)"><g><path d="M 1.90625 -2.765625 L 1.90625 0 L 0.546875 0 L 0.546875 -6.1875 L 1.90625 -6.1875 L 1.90625 -3.421875 L 3.875 -6.1875 L 5.625 -6.1875 L 3.25 -3.09375 L 5.71875 0 L 3.875 0 Z M 1.90625 -2.765625 "/></g></g></g><g fill="#151f28" fill-opacity="1"><g transform="translate(184.288523, 261.833918)"><g><path d="M 5.328125 -3.109375 C 5.328125 -3.429688 5.238281 -3.726562 5.0625 -4 C 4.894531 -4.28125 4.671875 -4.503906 4.390625 -4.671875 C 4.117188 -4.835938 3.820312 -4.921875 3.5 -4.921875 C 3.1875 -4.921875 2.890625 -4.835938 2.609375 -4.671875 C 2.335938 -4.503906 2.113281 -4.28125 1.9375 -4 C 1.769531 -3.726562 1.6875 -3.429688 1.6875 -3.109375 C 1.6875 -2.785156 1.769531 -2.484375 1.9375 -2.203125 C 2.113281 -1.929688 2.335938 -1.707031 2.609375 -1.53125 C 2.890625 -1.363281 3.1875 -1.28125 3.5 -1.28125 C 3.820312 -1.28125 4.117188 -1.363281 4.390625 -1.53125 C 4.671875 -1.707031 4.894531 -1.929688 5.0625 -2.203125 C 5.238281 -2.484375 5.328125 -2.785156 5.328125 -3.109375 Z M 6.6875 -3.09375 C 6.6875 -2.664062 6.601562 -2.257812 6.4375 -1.875 C 6.269531 -1.488281 6.035156 -1.148438 5.734375 -0.859375 C 5.441406 -0.566406 5.101562 -0.332031 4.71875 -0.15625 C 4.34375 0.0078125 3.9375 0.09375 3.5 0.09375 C 3.082031 0.09375 2.679688 0.0078125 2.296875 -0.15625 C 1.910156 -0.332031 1.566406 -0.566406 1.265625 -0.859375 C 0.972656 -1.148438 0.738281 -1.488281 0.5625 -1.875 C 0.394531 -2.257812 0.3125 -2.664062 0.3125 -3.09375 C 0.3125 -3.53125 0.394531 -3.9375 0.5625 -4.3125 C 0.738281 -4.695312 0.972656 -5.035156 1.265625 -5.328125 C 1.566406 -5.628906 1.910156 -5.863281 2.296875 -6.03125 C 2.679688 -6.195312 3.082031 -6.28125 3.5 -6.28125 C 3.9375 -6.28125 4.34375 -6.195312 4.71875 -6.03125 C 5.101562 -5.863281 5.441406 -5.628906 5.734375 -5.328125 C 6.035156 -5.035156 6.269531 -4.695312 6.4375 -4.3125 C 6.601562 -3.9375 6.6875 -3.53125 6.6875 -3.09375 Z M 6.6875 -3.09375 "/></g></g></g><g fill="#151f28" fill-opacity="1"><g transform="translate(198.283868, 261.833918)"><g><path d="M 6.234375 -6.1875 L 3.71875 0 L 2.546875 0 L 0.046875 -6.1875 L 1.515625 -6.1875 L 2.796875 -2.71875 L 3.140625 -1.734375 L 3.46875 -2.71875 L 4.75 -6.1875 Z M 6.234375 -6.1875 "/></g></g></g><g fill="#151f28" fill-opacity="1"><g transform="translate(211.542626, 261.833918)"><g/></g></g><g fill="#151f28" fill-opacity="1"><g transform="translate(220.809227, 261.833918)"><g><path d="M 1.90625 -2.765625 L 1.90625 0 L 0.546875 0 L 0.546875 -6.1875 L 1.90625 -6.1875 L 1.90625 -3.421875 L 3.875 -6.1875 L 5.625 -6.1875 L 3.25 -3.09375 L 5.71875 0 L 3.875 0 Z M 1.90625 -2.765625 "/></g></g></g><g fill="#151f28" fill-opacity="1"><g transform="translate(233.413246, 261.833918)"><g><path d="M 3.921875 -2.375 L 3.140625 -4.578125 L 2.34375 -2.375 Z M 6.234375 0 L 4.765625 0 L 4.3125 -1.25 L 1.953125 -1.25 L 1.515625 0 L 0.046875 0 L 2.5625 -6.1875 L 3.71875 -6.1875 Z M 6.234375 0 "/></g></g></g><g fill="#151f28" fill-opacity="1"><g transform="translate(246.672003, 261.833918)"><g><path d="M 2.953125 -0.96875 C 3.097656 -0.96875 3.253906 -0.988281 3.421875 -1.03125 C 3.597656 -1.082031 3.742188 -1.160156 3.859375 -1.265625 C 3.984375 -1.367188 4.046875 -1.507812 4.046875 -1.6875 C 4.046875 -1.863281 3.976562 -2.003906 3.84375 -2.109375 C 3.71875 -2.210938 3.550781 -2.296875 3.34375 -2.359375 C 3.132812 -2.421875 2.898438 -2.476562 2.640625 -2.53125 C 2.390625 -2.59375 2.132812 -2.664062 1.875 -2.75 C 1.625 -2.832031 1.390625 -2.941406 1.171875 -3.078125 C 0.960938 -3.210938 0.789062 -3.382812 0.65625 -3.59375 C 0.53125 -3.8125 0.46875 -4.082031 0.46875 -4.40625 C 0.46875 -4.726562 0.535156 -5.003906 0.671875 -5.234375 C 0.804688 -5.472656 0.984375 -5.671875 1.203125 -5.828125 C 1.429688 -5.984375 1.679688 -6.097656 1.953125 -6.171875 C 2.234375 -6.242188 2.507812 -6.28125 2.78125 -6.28125 C 3.207031 -6.28125 3.601562 -6.210938 3.96875 -6.078125 C 4.34375 -5.953125 4.644531 -5.742188 4.875 -5.453125 C 5.113281 -5.160156 5.238281 -4.78125 5.25 -4.3125 L 3.9375 -4.3125 C 3.894531 -4.632812 3.78125 -4.859375 3.59375 -4.984375 C 3.40625 -5.109375 3.144531 -5.171875 2.8125 -5.171875 C 2.675781 -5.171875 2.535156 -5.144531 2.390625 -5.09375 C 2.253906 -5.050781 2.132812 -4.984375 2.03125 -4.890625 C 1.9375 -4.796875 1.890625 -4.671875 1.890625 -4.515625 C 1.890625 -4.359375 1.953125 -4.234375 2.078125 -4.140625 C 2.210938 -4.054688 2.382812 -3.984375 2.59375 -3.921875 C 2.8125 -3.859375 3.046875 -3.796875 3.296875 -3.734375 C 3.554688 -3.679688 3.8125 -3.613281 4.0625 -3.53125 C 4.3125 -3.457031 4.539062 -3.351562 4.75 -3.21875 C 4.96875 -3.082031 5.140625 -2.90625 5.265625 -2.6875 C 5.398438 -2.46875 5.46875 -2.1875 5.46875 -1.84375 C 5.46875 -1.476562 5.394531 -1.164062 5.25 -0.90625 C 5.101562 -0.65625 4.90625 -0.453125 4.65625 -0.296875 C 4.414062 -0.148438 4.140625 -0.0390625 3.828125 0.03125 C 3.523438 0.101562 3.210938 0.140625 2.890625 0.140625 C 2.441406 0.140625 2.015625 0.0664062 1.609375 -0.078125 C 1.210938 -0.234375 0.890625 -0.472656 0.640625 -0.796875 C 0.398438 -1.117188 0.273438 -1.535156 0.265625 -2.046875 L 1.65625 -2.046875 C 1.675781 -1.671875 1.8125 -1.394531 2.0625 -1.21875 C 2.320312 -1.050781 2.617188 -0.96875 2.953125 -0.96875 Z M 2.953125 -0.96875 "/></g></g></g><g fill="#151f28" fill-opacity="1"><g transform="translate(259.394239, 261.833918)"><g><path d="M 3.953125 -6.1875 L 5.40625 -6.1875 L 5.40625 0 L 3.953125 0 L 3.953125 -2.484375 L 1.90625 -2.484375 L 1.90625 0 L 0.546875 0 L 0.546875 -6.1875 L 1.90625 -6.1875 L 1.90625 -3.71875 L 3.953125 -3.71875 Z M 3.953125 -6.1875 "/></g></g></g><g fill="#151f28" fill-opacity="1"><g transform="translate(272.334714, 261.833918)"><g><path d="M 1.90625 -2.21875 L 1.90625 0 L 0.546875 0 L 0.546875 -6.1875 L 2.875 -6.1875 C 3.207031 -6.1875 3.515625 -6.101562 3.796875 -5.9375 C 4.085938 -5.769531 4.320312 -5.535156 4.5 -5.234375 C 4.675781 -4.941406 4.765625 -4.597656 4.765625 -4.203125 C 4.765625 -3.859375 4.695312 -3.550781 4.5625 -3.28125 C 4.4375 -3.019531 4.269531 -2.800781 4.0625 -2.625 C 3.851562 -2.457031 3.617188 -2.34375 3.359375 -2.28125 L 5.125 0 L 3.390625 0 L 1.921875 -2.21875 Z M 2.640625 -5.125 L 1.90625 -5.125 L 1.90625 -3.28125 L 2.640625 -3.28125 C 2.835938 -3.28125 3.023438 -3.359375 3.203125 -3.515625 C 3.378906 -3.679688 3.46875 -3.910156 3.46875 -4.203125 C 3.46875 -4.492188 3.378906 -4.71875 3.203125 -4.875 C 3.023438 -5.039062 2.835938 -5.125 2.640625 -5.125 Z M 2.640625 -5.125 "/></g></g></g><g fill="#151f28" fill-opacity="1"><g transform="translate(284.338535, 261.833918)"><g><path d="M 4.15625 -6.1875 L 5.53125 -6.1875 L 5.53125 -2.40625 C 5.53125 -1.582031 5.304688 -0.957031 4.859375 -0.53125 C 4.410156 -0.113281 3.78125 0.09375 2.96875 0.09375 C 2.164062 0.09375 1.535156 -0.113281 1.078125 -0.53125 C 0.628906 -0.957031 0.40625 -1.582031 0.40625 -2.40625 L 0.40625 -6.1875 L 1.78125 -6.1875 L 1.78125 -2.609375 C 1.78125 -2.191406 1.863281 -1.863281 2.03125 -1.625 C 2.195312 -1.394531 2.507812 -1.28125 2.96875 -1.28125 C 3.4375 -1.28125 3.75 -1.394531 3.90625 -1.625 C 4.070312 -1.863281 4.15625 -2.191406 4.15625 -2.609375 Z M 4.15625 -6.1875 "/></g></g></g><g fill="#151f28" fill-opacity="1"><g transform="translate(297.260836, 261.833918)"><g><path d="M 3.171875 -4.953125 L 3.171875 0 L 1.8125 0 L 1.8125 -4.953125 L 0.046875 -4.953125 L 0.046875 -6.1875 L 4.953125 -6.1875 L 4.953125 -4.953125 Z M 3.171875 -4.953125 "/></g></g></g></svg>