<?xml version="1.0" encoding="UTF-8"?><svg id="Layer_1" xmlns="http://www.w3.org/2000/svg" viewBox="0 0 500 500"><path d="M50.47,263.71c25.84,0,54.09-14.3,54.09-44.27s-28.25-44.41-54.27-44.41H17.77c-.88,0-1.72.88-1.72,1.72v1.72c0,.53.7,1.4,1.02,1.54,6.56,2.59,11.04,7.92,11.04,15v84.03c0,7.05-4.31,12.37-10.87,14.97-.49.18-1.19,1.19-1.19,1.54v1.72c0,1.05.84,1.75,1.72,1.75h41.33c1.02,0,1.72-.7,1.72-1.75v-1.72c0-.35-.53-1.37-1.05-1.54-6.52-2.59-11.01-7.92-11.01-14.97v-15.32h1.72ZM48.76,182.94h1.54c20.68,0,33.41,16.51,33.41,36.49s-12.73,36.35-33.23,36.35h-1.72v-72.84Z"/><path d="M187.78,293.82c-6.91-2.91-12.06-7.75-13.95-14.97l-26.5-105.2c-.18-.53-1.05-1.23-1.58-1.23h-17.04c-1.37,0-2.07.88-1.72,2.07l2.07,8.45-21.35,95.91c-1.54,7.22-6.73,12.06-13.43,14.97-.53.35-1.05,1.23-1.05,1.72v1.72c0,.88.88,1.75,1.72,1.75h28.96c.84,0,1.72-.88,1.72-1.75v-1.72c0-.49-.7-1.37-1.05-1.72-5.5-2.24-8.94-5.5-8.94-11.36,0-2.24.35-4.66,1.02-7.22.53-2.07,1.05-4.14,1.54-6.2h32.57c1.37,3.96,3.08,9.64,3.08,13.78,0,5.68-3.26,8.76-8.59,11.01-.53.35-1.05,1.23-1.05,1.72v1.72c0,.88.7,1.75,1.72,1.75h41.15c.88,0,1.72-.88,1.72-1.75v-1.72c0-.49-.67-1.37-1.02-1.72ZM120.13,261.12l13.43-60.61,15.32,60.61h-28.75Z"/><path d="M219.75,175.02h-32.74c-.84,0-1.72.88-1.72,1.72v1.72c0,.53.7,1.4,1.23,1.54,6.34,2.24,10.83,8.27,10.83,15v84.03c0,6.69-4.66,12.72-11.01,14.79-.53.17-1.05,1.23-1.05,1.72v1.72c0,.88.7,1.75,1.72,1.75h32.74c37.51,0,64.4-23.28,64.4-62.01s-26.89-61.98-64.4-61.98ZM219.75,291.09h-1.75v-108.15h1.75c29.94,0,43.71,26.33,43.71,54.05s-13.78,54.09-43.71,54.09Z"/><path d="M370.84,293.82c-6.91-2.91-12.06-7.75-13.95-14.97l-26.5-105.2c-.18-.53-1.05-1.23-1.58-1.23h-17.04c-1.37,0-2.07.88-1.72,2.07l2.07,8.45-21.35,95.91c-1.54,7.22-6.73,12.06-13.43,14.97-.53.35-1.05,1.23-1.05,1.72v1.72c0,.88.88,1.75,1.75,1.75h28.92c.84,0,1.72-.88,1.72-1.75v-1.72c0-.49-.7-1.37-1.05-1.72-5.5-2.24-8.94-5.5-8.94-11.36,0-2.24.35-4.66,1.02-7.22.53-2.07,1.05-4.14,1.58-6.2h32.53c1.37,3.96,3.08,9.64,3.08,13.78,0,5.68-3.26,8.76-8.59,11.01-.53.35-1.05,1.23-1.05,1.72v1.72c0,.88.7,1.75,1.72,1.75h41.15c.88,0,1.72-.88,1.72-1.75v-1.72c0-.49-.67-1.37-1.02-1.72ZM303.19,261.12l13.43-60.61,15.32,60.61h-28.75Z"/><path d="M442.69,176.74v1.72c0,.53-.53,1.4-1.02,1.54-6.91,3.12-12.06,7.92-14.13,15.18l-28.08,103.66c-.18.49-1.02,1.19-1.72,1.19h-2.59c-.67,0-1.54-.7-1.72-1.19l-31.48-103.83c-2.07-7.08-7.61-11.88-14.48-15-.35-.14-1.05-1.02-1.05-1.54v-1.72c0-.84.88-1.72,1.75-1.72h41.47c1.05,0,1.72.88,1.72,1.72v1.72c0,.53-.49,1.4-1.02,1.54-5.15,2.42-8.45,5.19-8.45,10.52,0,1.19.18,2.42.53,3.61l19.46,64.22,17.56-64.22c.35-1.02.53-2.07.53-3.26,0-5.5-3.44-8.45-8.8-10.87-.35-.14-1.02-1.02-1.02-1.54v-1.72c0-.84.84-1.72,1.72-1.72h29.1c1.05,0,1.72.88,1.72,1.72Z"/><path d="M480.05,148.22l-31.16,11.14c-.37.06-1.07.8-1.15,1.15l-.96,4.38c-.26,1.16.59,2.21,1.82,2.16l28.66-.42c.69-.03,1.55-.7,1.7-1.38l3.32-15.13c.33-1.51-.68-2.45-2.24-1.89Z"/><path d="M471.89,195v84.03c0,7.22,4.31,12.2,11.01,14.97.35.18,1.05,1.19,1.05,1.54v1.89c0,.88-.88,1.72-1.72,1.72h-41.33c-.88,0-1.72-.84-1.72-1.72v-1.89c0-.35.67-1.37,1.02-1.54,6.73-2.77,11.04-7.75,11.04-14.97v-84.03c0-7.26-4.31-12.06-11.04-15-.35-.14-1.02-1.02-1.02-1.54v-1.72c0-.84.84-1.72,1.72-1.72h41.33c.84,0,1.72.88,1.72,1.72v1.72c0,.53-.7,1.4-1.05,1.54-6.7,2.94-11.01,7.75-11.01,15Z"/><path d="M121.96,344.99c0,1.4-.37,2.61-1.11,3.62-.74,1.01-1.71,1.79-2.92,2.33s-2.56.81-4.06.81h-12.52v-26.23h13.52c1.23,0,2.3.33,3.2.98.9.65,1.59,1.49,2.07,2.51s.72,2.09.72,3.2c0,1.26-.33,2.45-.98,3.58s-1.58,1.97-2.79,2.51c1.5.44,2.69,1.26,3.57,2.44.87,1.18,1.31,2.6,1.31,4.25ZM105.52,329.07v7.79h7.57c.69,0,1.3-.17,1.85-.52.54-.34.97-.81,1.29-1.39.32-.58.48-1.24.48-1.98s-.14-1.43-.43-2.01c-.28-.58-.68-1.04-1.2-1.38-.52-.35-1.11-.52-1.77-.52h-7.8ZM117.75,344.22c0-.74-.16-1.42-.48-2.03-.32-.62-.75-1.11-1.28-1.48-.53-.37-1.15-.55-1.87-.55h-8.61v8.05h8.35c.74,0,1.4-.19,1.98-.57.58-.38,1.04-.87,1.39-1.46.34-.59.52-1.24.52-1.96Z"/><path d="M141.21,351.94c-1.85,0-3.54-.37-5.06-1.11-1.53-.74-2.85-1.74-3.97-3.01-1.12-1.27-1.98-2.7-2.59-4.29-.6-1.59-.9-3.22-.9-4.9s.32-3.42.96-5.01c.64-1.59,1.53-3,2.68-4.25,1.15-1.24,2.48-2.23,3.99-2.96,1.52-.73,3.18-1.09,5.01-1.09s3.6.38,5.12,1.15c1.52.76,2.83,1.79,3.94,3.07,1.11,1.28,1.96,2.71,2.55,4.29.59,1.58.89,3.2.89,4.88s-.31,3.38-.92,4.97-1.5,3-2.64,4.25c-1.15,1.24-2.48,2.22-3.99,2.94-1.52.71-3.2,1.07-5.04,1.07ZM132.93,338.64c0,1.26.19,2.46.57,3.6.38,1.14.94,2.17,1.66,3.07.73.9,1.6,1.61,2.62,2.12,1.02.52,2.19.78,3.49.78s2.51-.27,3.55-.81c1.04-.54,1.91-1.27,2.62-2.2.71-.92,1.26-1.95,1.62-3.08.37-1.13.55-2.29.55-3.47,0-1.26-.2-2.45-.59-3.58s-.96-2.15-1.7-3.05c-.74-.9-1.62-1.61-2.64-2.12s-2.16-.78-3.42-.78c-1.35,0-2.54.27-3.56.81-1.02.54-1.89,1.27-2.61,2.18-.71.91-1.26,1.93-1.62,3.07s-.55,2.29-.55,3.47Z"/><path d="M173.13,351.94c-2.09,0-3.86-.36-5.3-1.07s-2.6-1.69-3.47-2.92c-.88-1.23-1.52-2.63-1.92-4.21s-.61-3.21-.61-4.91v-13.3h4.18v13.3c0,1.21.12,2.37.35,3.49.23,1.12.62,2.12,1.16,3.01s1.27,1.59,2.18,2.11,2.04.78,3.4.78,2.56-.26,3.47-.78c.91-.52,1.64-1.23,2.2-2.14.55-.91.95-1.92,1.18-3.03.23-1.11.35-2.25.35-3.44v-13.3h4.18v13.3c0,1.8-.22,3.49-.65,5.08-.43,1.59-1.1,2.99-2,4.19-.9,1.21-2.07,2.15-3.51,2.83-1.44.68-3.17,1.02-5.19,1.02Z"/><path d="M194.04,351.76v-26.23h4.18v22.57h14.04v3.66h-18.21Z"/><path d="M227.26,325.52h3.92l10.2,26.23h-4.36l-2.56-7.13h-10.49l-2.57,7.13h-4.36l10.23-26.23ZM233.35,341.56l-4.13-11.49-4.15,11.49h8.28Z"/><path d="M252.86,333.21v18.55h-4.18v-26.23h3.4l14.85,18.95v-18.92h4.14v26.2h-3.58l-14.63-18.55Z"/><path d="M291.8,351.94c-1.72,0-3.34-.36-4.84-1.07s-2.81-1.69-3.93-2.94c-1.12-1.24-2-2.67-2.62-4.29-.63-1.61-.94-3.32-.94-5.12s.31-3.49.94-5.06c.63-1.58,1.5-2.97,2.62-4.19,1.12-1.22,2.44-2.18,3.95-2.88,1.51-.7,3.16-1.05,4.93-1.05,2.51,0,4.62.52,6.34,1.57,1.71,1.05,3,2.43,3.86,4.16l-3.18,2.29c-.71-1.43-1.7-2.5-2.96-3.21-1.26-.71-2.64-1.07-4.14-1.07-1.26,0-2.38.26-3.38.78-1,.52-1.85,1.23-2.57,2.12-.71.9-1.26,1.92-1.64,3.07-.38,1.14-.57,2.35-.57,3.6,0,1.33.21,2.57.63,3.73.42,1.16,1.01,2.17,1.77,3.05s1.66,1.56,2.7,2.05c1.04.49,2.14.74,3.33.74,1.45,0,2.83-.36,4.12-1.09s2.51-1.82,3.64-3.27v4.21c-2.29,2.59-4.97,3.88-8.05,3.88ZM299.42,341.56h-5.47v-3.1h8.98v13.3h-3.51v-10.2Z"/><path d="M329.71,348.1v3.66h-17.99v-26.23h17.66v3.66h-13.49v7.5h11.71v3.4h-11.71v8.02h13.82Z"/><path d="M338.06,351.76v-26.23h11.42c1.18,0,2.27.25,3.25.74.98.49,1.84,1.15,2.57,1.96s1.29,1.73,1.7,2.75c.41,1.02.61,2.05.61,3.09,0,1.18-.21,2.3-.63,3.34-.42,1.05-1.02,1.95-1.79,2.72s-1.68,1.32-2.71,1.66l6.17,9.98h-4.66l-5.69-9.13h-6.06v9.13h-4.18ZM342.24,338.97h7.2c.76,0,1.44-.23,2.03-.68.59-.46,1.06-1.05,1.4-1.79.34-.74.52-1.55.52-2.44s-.21-1.74-.61-2.48c-.41-.74-.92-1.32-1.53-1.75-.62-.43-1.29-.65-2.03-.65h-6.98v9.79Z"/><path d="M366.55,351.76v-26.23h4.18v26.23h-4.18Z"/><path d="M398.65,348.1v3.66h-17.99v-26.23h17.66v3.66h-13.49v7.5h11.71v3.4h-11.71v8.02h13.82Z"/></svg>